<?xml version="1.0" encoding="UTF-8"?>
<svg version="1.1" xmlns="http://www.w3.org/2000/svg" width="246" height="179">
<path d="M0 0 C4.05272436 -0.04799648 8.10525483 -0.08607837 12.15820312 -0.10986328 C13.53128212 -0.11979919 14.90434067 -0.13335261 16.27734375 -0.15087891 C29.34945913 -0.31332478 43.41296953 -0.44330337 53.84765625 8.6015625 C60.85724726 16.14505356 61.98916904 24.98136479 62 35 C60.89902563 54.63737926 54.94009279 75.42585855 40 89 C38.515 89.495 38.515 89.495 37 90 C36.98969254 90.85840485 36.97938507 91.71680969 36.96876526 92.60122681 C36.87018374 100.74966725 36.7675918 108.89804569 36.66066074 117.046381 C36.60584311 121.23402231 36.55249629 125.4216709 36.50268555 129.609375 C36.45442565 133.66190094 36.40207414 137.71435645 36.34705925 141.76679611 C36.32691063 143.30146877 36.30815802 144.83616051 36.29092598 146.37086868 C36.18213905 155.95927405 35.77262868 165.43700165 35 175 C26.42 175 17.84 175 9 175 C8.90564717 161.69625144 9.06363541 148.42217055 9.4375 135.125 C9.45714813 134.39517914 9.47679626 133.66535828 9.49703979 132.91342163 C9.77880697 122.59147155 10.2926949 112.30148656 11 102 C9.02 102 7.04 102 5 102 C4.75507812 103.2478125 4.51015625 104.495625 4.2578125 105.78125 C-0.31030166 128.89189869 -5.17853032 151.94120422 -10 175 C-18.91 175 -27.82 175 -37 175 C-33.51398639 157.42280024 -29.90693776 139.87572785 -26.20560265 122.34272218 C-25.62620059 119.59736767 -25.04762128 116.85183999 -24.46901941 114.10631675 C-23.10112945 107.61563231 -21.73192099 101.12522705 -20.36181641 94.63500977 C-18.96430143 88.01483942 -17.56900466 81.39420433 -16.17479944 74.77333623 C-14.96146093 69.01175877 -13.74674643 63.25047252 -12.53098059 57.48940676 C-11.81194237 54.08209775 -11.09336024 50.67469453 -10.37611389 47.26700783 C-7.05145193 31.47925676 -3.63585093 15.71919755 0 0 Z M21 27 C18.07825023 38.27234864 15.55384378 49.58650714 13.25 61 C12.93131343 62.56517014 12.61230432 64.13027464 12.29296875 65.6953125 C11.52494801 69.46279997 10.76121879 73.23113258 10 77 C16.67873146 77.10534124 19.88917166 76.2266766 25 72 C32.44559405 64.59380063 35.09285845 52.23741508 35.25 42.0625 C35.19256399 36.21838633 34.31307166 32.47829107 30.25 28.125 C27.14065847 26.57032923 24.43154477 26.92817697 21 27 Z " fill="#5DB483" transform="translate(37,2)"/>
<path d="M0 0 C1.29349365 0.00523682 2.5869873 0.01047363 3.91967773 0.01586914 C4.9496714 0.01799156 4.9496714 0.01799156 6.00047302 0.02015686 C8.20144949 0.0257706 10.40232557 0.03832532 12.60327148 0.05102539 C14.09220231 0.05603863 15.58113473 0.06060184 17.07006836 0.06469727 C20.72700223 0.07574446 24.38387707 0.09301826 28.04077148 0.11352539 C29.48540205 3.00278652 28.98572804 5.29851296 28.78811646 8.51954651 C28.74884092 9.18460785 28.70956539 9.8496692 28.66909969 10.53488392 C28.53545816 12.77442594 28.39379897 15.01338962 28.25219727 17.25244141 C28.15497253 18.85384805 28.05823317 20.45528423 27.96194458 22.05674744 C27.69833658 26.41692203 27.42773818 30.77663799 27.15580606 35.13630033 C26.87226696 39.69895086 26.59469301 44.26196443 26.31637573 48.82493591 C25.84757959 56.49631895 25.37452508 64.16742993 24.89868164 71.83837891 C24.34932613 80.69479684 23.80533638 89.5515307 23.26456082 98.40847641 C22.68850298 107.84296892 22.10900846 117.27724783 21.52823782 126.71145129 C21.36141223 129.42459319 21.1951657 132.13777008 21.02902603 134.85095406 C20.76690402 139.1282068 20.50243164 143.40530825 20.23618698 147.68230629 C20.13908823 149.24749853 20.04272994 150.81273693 19.94718933 152.37802505 C19.81600187 154.52502438 19.68203372 156.67183356 19.5473938 158.81861877 C19.4362131 160.61636671 19.4362131 160.61636671 19.32278633 162.45043278 C18.99711939 166.68052269 18.50928912 170.89686666 18.04077148 175.11352539 C9.46077148 175.11352539 0.88077148 175.11352539 -7.95922852 175.11352539 C-7.69616086 170.77163202 -7.43082351 166.43000142 -7.15966797 162.08862305 C-7.06815741 160.61246861 -6.97797483 159.1362312 -6.88916016 157.65991211 C-6.7610835 155.53484126 -6.62819469 153.410117 -6.49438477 151.28540039 C-6.41583252 150.00761719 -6.33728027 148.72983398 -6.25634766 147.41333008 C-5.95922852 144.11352539 -5.95922852 144.11352539 -4.95922852 140.11352539 C-12.87922852 140.44352539 -20.79922852 140.77352539 -28.95922852 141.11352539 C-29.74168945 143.40032227 -30.52415039 145.68711914 -31.33032227 148.04321289 C-32.08787971 150.25410316 -32.84591823 152.46482792 -33.60400391 154.67553711 C-34.1312006 156.21377593 -34.65789583 157.75218671 -35.18408203 159.29077148 C-35.93984785 161.50037145 -36.69740615 163.70934972 -37.45532227 165.91821289 C-37.69077255 166.60785126 -37.92622284 167.29748962 -38.16880798 168.00802612 C-39.84535681 172.88578198 -39.84535681 172.88578198 -40.95922852 175.11352539 C-49.53922852 175.11352539 -58.11922852 175.11352539 -66.95922852 175.11352539 C-61.369414 158.81456723 -55.62159999 142.59783947 -49.61904907 126.44708252 C-47.34023867 120.31284382 -45.07167365 114.17482704 -42.80688477 108.03540039 C-42.57088499 107.39570942 -42.33488522 106.75601845 -42.09173393 106.0969429 C-35.49430758 88.2029602 -29.06560489 70.24800226 -22.64427948 52.29022408 C-17.92948933 39.10567002 -13.18801703 25.93160955 -8.34594727 12.79321289 C-7.91901077 11.62976349 -7.49207428 10.46631409 -7.05220032 9.26760864 C-6.66017929 8.20855316 -6.26815826 7.14949768 -5.86425781 6.05834961 C-5.51936813 5.12417206 -5.17447845 4.18999451 -4.81913757 3.22750854 C-3.56186067 0.13664427 -3.56186067 0.13664427 0 0 Z M1.04077148 53.11352539 C-3.55328208 65.1750042 -7.80947176 77.35058598 -11.99819946 89.55755615 C-12.59823274 91.30615703 -13.19929026 93.05440676 -13.80136108 94.80230713 C-14.65812261 97.29162977 -15.5105469 99.78239297 -16.36157227 102.27368164 C-16.62375549 103.03438461 -16.88593872 103.79508759 -17.15606689 104.57884216 C-18.48967612 108.26236586 -18.48967612 108.26236586 -18.95922852 112.11352539 C-13.67922852 112.11352539 -8.39922852 112.11352539 -2.95922852 112.11352539 C-2.01048689 109.26730051 -1.6986077 107.03502479 -1.46264648 104.06298828 C-1.37941132 103.03504654 -1.29617615 102.0071048 -1.2104187 100.94801331 C-1.12494781 99.83860886 -1.03947693 98.72920441 -0.95141602 97.58618164 C-0.86167511 96.44571884 -0.7719342 95.30525604 -0.67947388 94.13023376 C-0.49095768 91.71702214 -0.30447837 89.30365067 -0.11987305 86.89013672 C0.16440577 83.19378312 0.45966527 79.49841367 0.75561523 75.80297852 C0.9372769 73.45993157 1.11828821 71.11683409 1.29858398 68.77368164 C1.38810333 67.66630142 1.47762268 66.5589212 1.56985474 65.41798401 C1.64678558 64.38689011 1.72371643 63.3557962 1.80297852 62.29345703 C1.87324249 61.38761368 1.94350647 60.48177032 2.01589966 59.54847717 C2.03992697 57.19620372 1.7283729 55.35217317 1.04077148 53.11352539 Z " fill="#5DB483" transform="translate(216.959228515625,1.886474609375)"/>
<path d="M0 0 C6.75546537 7.09114067 8.42157505 15.96116882 8.19921875 25.48828125 C7.05236486 39.94763514 7.05236486 39.94763514 5 42 C3.1500004 42.228226 1.29234486 42.39504938 -0.56640625 42.53515625 C-2.2534668 42.66567383 -2.2534668 42.66567383 -3.97460938 42.79882812 C-5.75061523 42.9293457 -5.75061523 42.9293457 -7.5625 43.0625 C-8.75037109 43.15337891 -9.93824219 43.24425781 -11.16210938 43.33789062 C-14.10778905 43.56266136 -17.05372674 43.78317196 -20 44 C-21.35117582 41.29764837 -20.6086338 39.93478217 -20 37 C-19.90964715 35.00160753 -19.86989687 33.00042747 -19.875 31 C-19.87242187 29.989375 -19.86984375 28.97875 -19.8671875 27.9375 C-19.99173273 25.18285256 -20.37889135 22.68161197 -21 20 C-25.18381014 19.58982253 -27.29049065 19.4839932 -30.75 22 C-35.92725106 28.90300141 -37.73101118 37.11751004 -36.66796875 45.671875 C-34.79842843 54.40443754 -30.90456158 62.34195672 -27.19287109 70.40771484 C-16.12638747 94.45681905 -7.41756539 114.53749329 -16 141 C-16.28875 141.9178125 -16.5775 142.835625 -16.875 143.78125 C-21.24399739 156.10806405 -29.65966791 165.290054 -41.29296875 171.15625 C-51.44766225 174.93148889 -65.83912242 174.71703166 -75.73046875 170.38671875 C-81.70316538 166.73730859 -85.69232991 161.4032026 -87.5703125 154.66796875 C-89.13340979 144.96255559 -89.50473479 131.00946958 -85 122 C-76.45022827 120.02416117 -67.73668877 119.71197729 -59 120 C-59.165 121.216875 -59.33 122.43375 -59.5 123.6875 C-60.96581294 135.64335289 -60.96581294 135.64335289 -58 147 C-55.14675563 148.42662219 -53.16545451 148.31033868 -50 148 C-44.23854184 144.84491577 -42.24177607 139.07894657 -40.41015625 133.0625 C-39.90388894 130.51669865 -39.7537983 128.09610185 -39.6875 125.5 C-39.63142578 124.09234375 -39.63142578 124.09234375 -39.57421875 122.65625 C-40.92747709 111.03560959 -46.92152821 100.2617795 -51.86108398 89.79248047 C-61.28229533 69.75768963 -68.88035431 47.90977298 -61 26 C-55.87283881 13.14923062 -47.50855313 3.05525094 -34.9375 -2.9921875 C-23.60773827 -7.63916009 -10.0793821 -7.39625412 0 0 Z " fill="#5EB483" transform="translate(171,6)"/>
</svg>
